<mxfile host="app.diagrams.net" modified="2024-01-14T20:21:33.690Z" agent="Mozilla/5.0 (Windows NT 10.0; Win64; x64) AppleWebKit/537.36 (KHTML, like Gecko) Chrome/120.0.0.0 Safari/537.36" etag="dp5ojSA8werLzmYp3zs8" version="22.1.18" type="github">
  <diagram name="Page-1" id="e7e014a7-5840-1c2e-5031-d8a46d1fe8dd">
    <mxGraphModel dx="2474" dy="1372" grid="1" gridSize="10" guides="1" tooltips="1" connect="1" arrows="1" fold="1" page="1" pageScale="1" pageWidth="1169" pageHeight="826" background="none" math="0" shadow="0">
      <root>
        <mxCell id="0" />
        <mxCell id="1" parent="0" />
        <mxCell id="2" value="User" style="swimlane;whiteSpace=wrap;rounded=1;" parent="1" vertex="1">
          <mxGeometry x="165" y="70" width="280" height="880" as="geometry" />
        </mxCell>
        <mxCell id="5" value="" style="ellipse;shape=startState;fillColor=#000000;strokeColor=#ff0000;rounded=1;" parent="2" vertex="1">
          <mxGeometry x="125" y="40" width="30" height="30" as="geometry" />
        </mxCell>
        <mxCell id="6" value="" style="edgeStyle=elbowEdgeStyle;elbow=horizontal;verticalAlign=bottom;endArrow=open;endSize=8;strokeColor=#FF0000;endFill=1;rounded=1;" parent="2" source="5" target="7" edge="1">
          <mxGeometry x="100" y="40" as="geometry">
            <mxPoint x="115" y="110" as="targetPoint" />
          </mxGeometry>
        </mxCell>
        <mxCell id="7" value="User submits&#xa;post details" style="rounded=1;" parent="2" vertex="1">
          <mxGeometry x="85" y="100" width="110" height="50" as="geometry" />
        </mxCell>
        <mxCell id="74Yf6YC-rg4YHEoNI1uy-65" value="Error Message" style="rounded=1;" vertex="1" parent="2">
          <mxGeometry x="85" y="195" width="110" height="50" as="geometry" />
        </mxCell>
        <mxCell id="74Yf6YC-rg4YHEoNI1uy-105" value="End" style="text;html=1;align=center;verticalAlign=middle;resizable=0;points=[];autosize=1;strokeColor=none;fillColor=none;fontSize=11;fontFamily=Helvetica;fontColor=default;" vertex="1" parent="2">
          <mxGeometry x="115" y="650" width="40" height="30" as="geometry" />
        </mxCell>
        <mxCell id="3" value="Application / Website" style="swimlane;whiteSpace=wrap;startSize=23;rounded=1;" parent="1" vertex="1">
          <mxGeometry x="445" y="70" width="280" height="880" as="geometry" />
        </mxCell>
        <mxCell id="74Yf6YC-rg4YHEoNI1uy-57" style="edgeStyle=elbowEdgeStyle;shape=connector;rounded=1;orthogonalLoop=1;jettySize=auto;elbow=horizontal;html=1;exitX=0.5;exitY=1;exitDx=0;exitDy=0;entryX=0.5;entryY=0;entryDx=0;entryDy=0;labelBackgroundColor=default;strokeColor=#FF0000;align=center;verticalAlign=bottom;fontFamily=Helvetica;fontSize=11;fontColor=default;endArrow=open;endFill=1;endSize=8;" edge="1" parent="3" source="74Yf6YC-rg4YHEoNI1uy-50" target="74Yf6YC-rg4YHEoNI1uy-56">
          <mxGeometry relative="1" as="geometry" />
        </mxCell>
        <mxCell id="74Yf6YC-rg4YHEoNI1uy-50" value="Validate user&#xa;data" style="rounded=1;" vertex="1" parent="3">
          <mxGeometry x="85" y="100" width="110" height="50" as="geometry" />
        </mxCell>
        <mxCell id="74Yf6YC-rg4YHEoNI1uy-56" value="isValid?" style="rhombus;whiteSpace=wrap;html=1;rounded=1;fontFamily=Helvetica;fontSize=11;fontColor=default;" vertex="1" parent="3">
          <mxGeometry x="100" y="180" width="80" height="80" as="geometry" />
        </mxCell>
        <mxCell id="4" value="Server / Database" style="swimlane;whiteSpace=wrap;startSize=23;rounded=1;" parent="1" vertex="1">
          <mxGeometry x="725" y="70" width="280" height="880" as="geometry" />
        </mxCell>
        <mxCell id="74Yf6YC-rg4YHEoNI1uy-75" style="edgeStyle=elbowEdgeStyle;shape=connector;rounded=1;orthogonalLoop=1;jettySize=auto;elbow=horizontal;html=1;exitX=0.5;exitY=1;exitDx=0;exitDy=0;labelBackgroundColor=default;strokeColor=#FF0000;align=center;verticalAlign=bottom;fontFamily=Helvetica;fontSize=11;fontColor=default;endArrow=open;endFill=1;endSize=8;" edge="1" parent="4" source="74Yf6YC-rg4YHEoNI1uy-70" target="74Yf6YC-rg4YHEoNI1uy-74">
          <mxGeometry relative="1" as="geometry" />
        </mxCell>
        <mxCell id="74Yf6YC-rg4YHEoNI1uy-54" value="prepare server&#xa;request" style="rounded=1;" vertex="1" parent="4">
          <mxGeometry x="-195" y="310" width="110" height="40" as="geometry" />
        </mxCell>
        <mxCell id="74Yf6YC-rg4YHEoNI1uy-68" value="sendÂ request&#xa;to server" style="rounded=1;" vertex="1" parent="4">
          <mxGeometry x="-195" y="375" width="110" height="40" as="geometry" />
        </mxCell>
        <mxCell id="74Yf6YC-rg4YHEoNI1uy-71" style="edgeStyle=elbowEdgeStyle;shape=connector;rounded=1;orthogonalLoop=1;jettySize=auto;elbow=horizontal;html=1;exitX=1;exitY=0.5;exitDx=0;exitDy=0;entryX=0;entryY=0.5;entryDx=0;entryDy=0;labelBackgroundColor=default;strokeColor=#FF0000;align=center;verticalAlign=bottom;fontFamily=Helvetica;fontSize=11;fontColor=default;endArrow=open;endFill=1;endSize=8;" edge="1" parent="4" source="74Yf6YC-rg4YHEoNI1uy-68" target="74Yf6YC-rg4YHEoNI1uy-70">
          <mxGeometry relative="1" as="geometry" />
        </mxCell>
        <mxCell id="74Yf6YC-rg4YHEoNI1uy-70" value="authenticate&#xa;sender" style="rounded=1;" vertex="1" parent="4">
          <mxGeometry x="90" y="370" width="110" height="50" as="geometry" />
        </mxCell>
        <mxCell id="74Yf6YC-rg4YHEoNI1uy-69" style="edgeStyle=elbowEdgeStyle;shape=connector;rounded=1;orthogonalLoop=1;jettySize=auto;elbow=horizontal;html=1;exitX=0.5;exitY=1;exitDx=0;exitDy=0;labelBackgroundColor=default;strokeColor=#FF0000;align=center;verticalAlign=bottom;fontFamily=Helvetica;fontSize=11;fontColor=default;endArrow=open;endFill=1;endSize=8;" edge="1" parent="4" source="74Yf6YC-rg4YHEoNI1uy-54" target="74Yf6YC-rg4YHEoNI1uy-68">
          <mxGeometry relative="1" as="geometry" />
        </mxCell>
        <mxCell id="74Yf6YC-rg4YHEoNI1uy-86" value="Error Message" style="rounded=1;" vertex="1" parent="4">
          <mxGeometry x="-475" y="465" width="110" height="50" as="geometry" />
        </mxCell>
        <mxCell id="38" value="" style="ellipse;shape=endState;fillColor=#000000;strokeColor=#ff0000;rounded=1;" parent="4" vertex="1">
          <mxGeometry x="-440" y="680" width="30" height="30" as="geometry" />
        </mxCell>
        <mxCell id="74Yf6YC-rg4YHEoNI1uy-104" style="edgeStyle=elbowEdgeStyle;shape=connector;rounded=1;orthogonalLoop=1;jettySize=auto;elbow=horizontal;html=1;exitX=0.5;exitY=0;exitDx=0;exitDy=0;entryX=0.5;entryY=1;entryDx=0;entryDy=0;labelBackgroundColor=default;strokeColor=#FF0000;align=center;verticalAlign=bottom;fontFamily=Helvetica;fontSize=11;fontColor=default;endArrow=open;endFill=1;endSize=8;" edge="1" parent="4" source="74Yf6YC-rg4YHEoNI1uy-101" target="38">
          <mxGeometry relative="1" as="geometry" />
        </mxCell>
        <mxCell id="74Yf6YC-rg4YHEoNI1uy-101" value="send user&#xa;message" style="rounded=1;" vertex="1" parent="4">
          <mxGeometry x="-480" y="760" width="110" height="50" as="geometry" />
        </mxCell>
        <mxCell id="74Yf6YC-rg4YHEoNI1uy-84" value="process error&#xa;message" style="rounded=1;" vertex="1" parent="4">
          <mxGeometry x="-195" y="465" width="110" height="50" as="geometry" />
        </mxCell>
        <mxCell id="74Yf6YC-rg4YHEoNI1uy-85" style="edgeStyle=elbowEdgeStyle;shape=connector;rounded=1;orthogonalLoop=1;jettySize=auto;elbow=horizontal;html=1;exitX=0;exitY=0.5;exitDx=0;exitDy=0;labelBackgroundColor=default;strokeColor=#FF0000;align=center;verticalAlign=bottom;fontFamily=Helvetica;fontSize=11;fontColor=default;endArrow=open;endFill=1;endSize=8;" edge="1" parent="4" source="74Yf6YC-rg4YHEoNI1uy-74" target="74Yf6YC-rg4YHEoNI1uy-84">
          <mxGeometry relative="1" as="geometry" />
        </mxCell>
        <mxCell id="74Yf6YC-rg4YHEoNI1uy-88" value="false" style="edgeLabel;html=1;align=center;verticalAlign=middle;resizable=0;points=[];fontSize=11;fontFamily=Helvetica;fontColor=default;" vertex="1" connectable="0" parent="74Yf6YC-rg4YHEoNI1uy-85">
          <mxGeometry x="-0.6082" y="2" relative="1" as="geometry">
            <mxPoint as="offset" />
          </mxGeometry>
        </mxCell>
        <mxCell id="74Yf6YC-rg4YHEoNI1uy-87" style="edgeStyle=elbowEdgeStyle;shape=connector;rounded=1;orthogonalLoop=1;jettySize=auto;elbow=horizontal;html=1;exitX=0;exitY=0.5;exitDx=0;exitDy=0;labelBackgroundColor=default;strokeColor=#FF0000;align=center;verticalAlign=bottom;fontFamily=Helvetica;fontSize=11;fontColor=default;endArrow=open;endFill=1;endSize=8;" edge="1" parent="4" source="74Yf6YC-rg4YHEoNI1uy-84" target="74Yf6YC-rg4YHEoNI1uy-86">
          <mxGeometry relative="1" as="geometry" />
        </mxCell>
        <mxCell id="74Yf6YC-rg4YHEoNI1uy-95" value="process response" style="rounded=1;" vertex="1" parent="4">
          <mxGeometry x="-195" y="690" width="110" height="50" as="geometry" />
        </mxCell>
        <mxCell id="74Yf6YC-rg4YHEoNI1uy-96" style="edgeStyle=elbowEdgeStyle;shape=connector;rounded=1;orthogonalLoop=1;jettySize=auto;elbow=horizontal;html=1;exitX=0;exitY=0.5;exitDx=0;exitDy=0;labelBackgroundColor=default;strokeColor=#FF0000;align=center;verticalAlign=bottom;fontFamily=Helvetica;fontSize=11;fontColor=default;endArrow=open;endFill=1;endSize=8;" edge="1" parent="4" source="74Yf6YC-rg4YHEoNI1uy-92" target="74Yf6YC-rg4YHEoNI1uy-95">
          <mxGeometry relative="1" as="geometry" />
        </mxCell>
        <mxCell id="74Yf6YC-rg4YHEoNI1uy-99" value="send user&#xa;message" style="rounded=1;" vertex="1" parent="4">
          <mxGeometry x="-195" y="760" width="110" height="50" as="geometry" />
        </mxCell>
        <mxCell id="74Yf6YC-rg4YHEoNI1uy-100" style="edgeStyle=elbowEdgeStyle;shape=connector;rounded=1;orthogonalLoop=1;jettySize=auto;elbow=horizontal;html=1;exitX=0.5;exitY=1;exitDx=0;exitDy=0;labelBackgroundColor=default;strokeColor=#FF0000;align=center;verticalAlign=bottom;fontFamily=Helvetica;fontSize=11;fontColor=default;endArrow=open;endFill=1;endSize=8;" edge="1" parent="4" source="74Yf6YC-rg4YHEoNI1uy-95" target="74Yf6YC-rg4YHEoNI1uy-99">
          <mxGeometry relative="1" as="geometry" />
        </mxCell>
        <mxCell id="74Yf6YC-rg4YHEoNI1uy-102" style="edgeStyle=elbowEdgeStyle;shape=connector;rounded=1;orthogonalLoop=1;jettySize=auto;elbow=horizontal;html=1;exitX=0;exitY=0.5;exitDx=0;exitDy=0;labelBackgroundColor=default;strokeColor=#FF0000;align=center;verticalAlign=bottom;fontFamily=Helvetica;fontSize=11;fontColor=default;endArrow=open;endFill=1;endSize=8;" edge="1" parent="4" source="74Yf6YC-rg4YHEoNI1uy-99" target="74Yf6YC-rg4YHEoNI1uy-101">
          <mxGeometry relative="1" as="geometry" />
        </mxCell>
        <mxCell id="74Yf6YC-rg4YHEoNI1uy-82" style="edgeStyle=elbowEdgeStyle;shape=connector;rounded=1;orthogonalLoop=1;jettySize=auto;elbow=horizontal;html=1;exitX=0.5;exitY=1;exitDx=0;exitDy=0;labelBackgroundColor=default;strokeColor=#FF0000;align=center;verticalAlign=bottom;fontFamily=Helvetica;fontSize=11;fontColor=default;endArrow=open;endFill=1;endSize=8;" edge="1" parent="4" source="74Yf6YC-rg4YHEoNI1uy-74" target="74Yf6YC-rg4YHEoNI1uy-81">
          <mxGeometry relative="1" as="geometry" />
        </mxCell>
        <mxCell id="74Yf6YC-rg4YHEoNI1uy-83" value="true" style="edgeLabel;html=1;align=center;verticalAlign=middle;resizable=0;points=[];fontSize=11;fontFamily=Helvetica;fontColor=default;" vertex="1" connectable="0" parent="74Yf6YC-rg4YHEoNI1uy-82">
          <mxGeometry x="-0.1957" y="-2" relative="1" as="geometry">
            <mxPoint as="offset" />
          </mxGeometry>
        </mxCell>
        <mxCell id="74Yf6YC-rg4YHEoNI1uy-74" value="isValidUser?" style="rhombus;whiteSpace=wrap;html=1;rounded=1;fontFamily=Helvetica;fontSize=11;fontColor=default;" vertex="1" parent="4">
          <mxGeometry x="105" y="450" width="80" height="80" as="geometry" />
        </mxCell>
        <mxCell id="74Yf6YC-rg4YHEoNI1uy-90" style="edgeStyle=elbowEdgeStyle;shape=connector;rounded=1;orthogonalLoop=1;jettySize=auto;elbow=horizontal;html=1;exitX=0.5;exitY=1;exitDx=0;exitDy=0;labelBackgroundColor=default;strokeColor=#FF0000;align=center;verticalAlign=bottom;fontFamily=Helvetica;fontSize=11;fontColor=default;endArrow=open;endFill=1;endSize=8;" edge="1" parent="4" source="74Yf6YC-rg4YHEoNI1uy-81" target="74Yf6YC-rg4YHEoNI1uy-89">
          <mxGeometry relative="1" as="geometry" />
        </mxCell>
        <mxCell id="74Yf6YC-rg4YHEoNI1uy-81" value="validate data" style="rounded=1;" vertex="1" parent="4">
          <mxGeometry x="90" y="580" width="110" height="30" as="geometry" />
        </mxCell>
        <mxCell id="74Yf6YC-rg4YHEoNI1uy-93" style="edgeStyle=elbowEdgeStyle;shape=connector;rounded=1;orthogonalLoop=1;jettySize=auto;elbow=horizontal;html=1;exitX=0.5;exitY=1;exitDx=0;exitDy=0;labelBackgroundColor=default;strokeColor=#FF0000;align=center;verticalAlign=bottom;fontFamily=Helvetica;fontSize=11;fontColor=default;endArrow=open;endFill=1;endSize=8;" edge="1" parent="4" source="74Yf6YC-rg4YHEoNI1uy-89" target="74Yf6YC-rg4YHEoNI1uy-92">
          <mxGeometry relative="1" as="geometry" />
        </mxCell>
        <mxCell id="74Yf6YC-rg4YHEoNI1uy-89" value="process request" style="rounded=1;" vertex="1" parent="4">
          <mxGeometry x="90" y="630" width="110" height="30" as="geometry" />
        </mxCell>
        <mxCell id="74Yf6YC-rg4YHEoNI1uy-92" value="send response" style="rounded=1;" vertex="1" parent="4">
          <mxGeometry x="90" y="690" width="110" height="50" as="geometry" />
        </mxCell>
        <mxCell id="74Yf6YC-rg4YHEoNI1uy-51" style="edgeStyle=elbowEdgeStyle;shape=connector;rounded=1;orthogonalLoop=1;jettySize=auto;elbow=horizontal;html=1;exitX=1;exitY=0.5;exitDx=0;exitDy=0;labelBackgroundColor=default;strokeColor=#FF0000;align=center;verticalAlign=bottom;fontFamily=Helvetica;fontSize=11;fontColor=default;endArrow=open;endFill=1;endSize=8;" edge="1" parent="1" source="7" target="74Yf6YC-rg4YHEoNI1uy-50">
          <mxGeometry relative="1" as="geometry" />
        </mxCell>
        <mxCell id="74Yf6YC-rg4YHEoNI1uy-66" style="edgeStyle=elbowEdgeStyle;shape=connector;rounded=1;orthogonalLoop=1;jettySize=auto;elbow=horizontal;html=1;exitX=0;exitY=0.5;exitDx=0;exitDy=0;labelBackgroundColor=default;strokeColor=#FF0000;align=center;verticalAlign=bottom;fontFamily=Helvetica;fontSize=11;fontColor=default;endArrow=open;endFill=1;endSize=8;" edge="1" parent="1" source="74Yf6YC-rg4YHEoNI1uy-56" target="74Yf6YC-rg4YHEoNI1uy-65">
          <mxGeometry relative="1" as="geometry" />
        </mxCell>
        <mxCell id="74Yf6YC-rg4YHEoNI1uy-67" value="false" style="edgeLabel;html=1;align=center;verticalAlign=middle;resizable=0;points=[];fontSize=11;fontFamily=Helvetica;fontColor=default;" vertex="1" connectable="0" parent="74Yf6YC-rg4YHEoNI1uy-66">
          <mxGeometry x="-0.2151" relative="1" as="geometry">
            <mxPoint x="33" as="offset" />
          </mxGeometry>
        </mxCell>
        <mxCell id="74Yf6YC-rg4YHEoNI1uy-58" value="true" style="edgeStyle=elbowEdgeStyle;shape=connector;rounded=1;orthogonalLoop=1;jettySize=auto;elbow=vertical;html=1;exitX=0.5;exitY=1;exitDx=0;exitDy=0;entryX=0.5;entryY=0;entryDx=0;entryDy=0;labelBackgroundColor=default;strokeColor=#FF0000;align=center;verticalAlign=bottom;fontFamily=Helvetica;fontSize=11;fontColor=default;endArrow=open;endFill=1;endSize=8;" edge="1" parent="1" source="74Yf6YC-rg4YHEoNI1uy-56" target="74Yf6YC-rg4YHEoNI1uy-54">
          <mxGeometry relative="1" as="geometry">
            <mxPoint as="offset" />
          </mxGeometry>
        </mxCell>
      </root>
    </mxGraphModel>
  </diagram>
</mxfile>
